<?xml version='1.0' encoding='utf-8'?>
<svg xmlns="http://www.w3.org/2000/svg" enable-background="new 0 0 2400 3600" version="1.1" viewBox="0 0 2400 3600">
<style type="text/css">
	.st0{stroke:#000000;stroke-miterlimit:10;}
</style>
<path class="st0" d="m1215.2 1208.2c140.9 30.3 213.7 396.6 236.2 505.7 73.2 354.8 217.5 960.1 566.4 1318.4-150.1 105-387.4 72.4-568.8-108.6 73.3 195.4-150.1 437.9-233.8 488.6-83.8-50.7-307.1-293.2-233.8-488.6-181.5 181-418.8 213.5-568.8 108.6 349-358.3 493.3-963.6 566.4-1318.4 22.5-109 95.2-475.3 236.2-505.7z" fill="#fff"/>
<path class="st0" d="m1215.2 883.4s528.5-186.5 0-823.4c-528.5 636.9 0 823.4 0 823.4z" fill="#fff"/>
<path class="st0" d="m1433.6 1161.2s335.6 448.9 785.9-245.4c-765.4-314.7-785.9 245.4-785.9 245.4z" fill="#fff"/>
<path class="st0" d="m996.7 1161.2s-335.6 448.9-785.9-245.4c765.4-314.7 785.9 245.4 785.9 245.4z" fill="#fff"/>
</svg>
