<svg xmlns="http://www.w3.org/2000/svg" xmlns:xlink="http://www.w3.org/1999/xlink" version="1.1" x="0px" y="0px" viewBox="0 0 100 100" enable-background="new 0 0 100 100" xml:space="preserve"><path fill="#000000" d="M88.94,17.176c3.923,0,5.751,2.35,5.751,5.225v24.427c0,2.742-2.089,4.964-4.836,5.224l-52.772,5.879  c-4.311,0.521-4.831,6.139,0.261,6.139h53.344c5.745,0,5.745,8.494,0,8.494H36.301c-11.495,0-15.806-12.67-6.791-19.336l4.57-3.396  l-16.2-35.397H9.625c-6.14,0-6.14-9.408,0-9.408h9.563c4.698,0,6.006,2.222,7.446,5.618l3.269,6.532H88.94z M39.646,86.929  c0,4.443-3.529,8.101-8.233,8.101c-4.438,0-8.101-3.657-8.101-8.101c0-4.569,3.663-8.227,8.101-8.227  C36.116,78.702,39.646,82.359,39.646,86.929z M37.344,33.371h13.191l-2.87-8.881H33.293L37.344,33.371z M55.11,48.657l-3.396-10.583  h-12.41l5.352,11.629L55.11,48.657z M52.367,24.49l2.743,8.881h12.933l-2.091-8.881H52.367z M71.438,46.956l-2.61-8.881H56.413  l3.269,10.061L71.438,46.956z M87.506,24.49H70.657l1.956,8.881h14.893V24.49z M94.899,86.929c0,4.443-3.529,8.101-8.1,8.101  c-4.572,0-8.229-3.657-8.229-8.101c0-4.569,3.657-8.227,8.229-8.227C91.37,78.702,94.899,82.359,94.899,86.929z M87.506,38.074  H73.66l2.089,8.233l11.757-1.18V38.074z"></path></svg>