<svg id="svg" version="1.1" xmlns="http://www.w3.org/2000/svg" xmlns:xlink="http://www.w3.org/1999/xlink" width="400" height="400" viewBox="0, 0, 400,400"><g id="svgg"><path id="path0" d="M26.185 107.699 C 26.080 107.975,26.041 141.320,26.097 181.800 L 26.200 255.400 143.800 255.400 L 261.400 255.400 261.400 181.400 L 261.400 107.400 143.888 107.299 C 50.088 107.219,26.337 107.300,26.185 107.699 M81.600 156.400 C 82.321 157.121,82.400 157.733,82.400 162.600 C 82.400 170.224,83.555 169.600,69.449 169.600 C 55.958 169.600,57.134 169.034,57.287 175.457 L 57.400 180.200 65.877 180.308 L 74.354 180.416 75.177 181.462 C 76.415 183.035,76.415 192.165,75.177 193.738 L 74.354 194.784 65.877 194.892 L 57.400 195.000 57.294 206.575 C 57.162 220.887,57.869 219.600,50.138 219.600 C 41.835 219.600,42.800 223.571,42.800 189.387 C 42.800 156.665,42.598 158.413,46.644 156.063 C 48.223 155.147,80.659 155.459,81.600 156.400 M125.573 155.992 C 126.325 156.208,127.403 156.818,127.970 157.347 C 128.536 157.877,129.450 158.442,130.000 158.602 C 131.244 158.966,132.400 159.953,132.400 160.652 C 132.400 160.942,132.925 161.451,133.567 161.783 C 134.272 162.148,134.909 162.919,135.178 163.734 C 135.423 164.476,136.068 165.500,136.612 166.011 C 139.336 168.571,139.206 181.066,136.421 184.237 C 134.679 186.221,134.663 189.125,136.386 190.847 C 138.222 192.683,138.395 194.041,138.398 206.569 C 138.401 220.877,139.081 219.602,131.438 219.594 C 123.915 219.586,124.638 220.699,124.395 208.756 C 124.204 199.400,124.136 198.649,123.430 198.240 C 122.460 197.678,121.520 196.738,120.957 195.765 C 120.549 195.061,119.993 195.000,113.957 195.000 L 107.400 195.000 107.294 206.575 C 107.162 220.887,107.869 219.600,100.138 219.600 C 91.835 219.600,92.800 223.571,92.800 189.387 C 92.800 156.665,92.598 158.413,96.644 156.063 C 97.618 155.498,123.626 155.434,125.573 155.992 M187.669 156.262 C 188.766 157.255,188.771 167.940,187.675 168.932 C 187.045 169.502,185.443 169.601,175.375 169.694 L 163.800 169.800 163.800 175.000 L 163.800 180.200 172.336 180.400 C 183.037 180.651,182.400 180.195,182.400 187.600 C 182.400 195.005,183.037 194.549,172.336 194.800 L 163.800 195.000 163.800 200.200 L 163.800 205.400 175.375 205.506 C 189.679 205.638,188.400 204.941,188.400 212.600 C 188.400 220.444,190.529 219.649,169.881 219.513 L 152.852 219.400 151.577 218.200 C 149.119 215.887,149.200 216.934,149.200 187.639 C 149.200 169.685,149.340 160.481,149.625 159.726 C 150.131 158.389,151.878 156.451,153.000 155.984 C 154.706 155.274,186.861 155.532,187.669 156.262 M237.669 156.262 C 238.766 157.255,238.771 167.940,237.675 168.932 C 237.045 169.502,235.443 169.601,225.375 169.694 L 213.800 169.800 213.800 175.000 L 213.800 180.200 222.336 180.400 C 233.037 180.651,232.400 180.195,232.400 187.600 C 232.400 195.005,233.037 194.549,222.336 194.800 L 213.800 195.000 213.800 200.200 L 213.800 205.400 225.375 205.506 C 239.679 205.638,238.400 204.941,238.400 212.600 C 238.400 220.444,240.529 219.649,219.881 219.513 L 202.852 219.400 201.577 218.200 C 199.119 215.887,199.200 216.934,199.200 187.639 C 199.200 169.685,199.340 160.481,199.625 159.726 C 200.131 158.389,201.878 156.451,203.000 155.984 C 204.706 155.274,236.861 155.532,237.669 156.262 M107.636 170.157 C 107.329 170.527,107.212 172.302,107.287 175.457 L 107.400 180.200 113.649 180.310 L 119.899 180.420 121.949 178.412 C 124.473 175.940,124.860 173.656,122.912 172.722 C 122.313 172.435,121.600 171.750,121.327 171.200 C 120.724 169.984,119.054 169.686,112.549 169.635 C 109.201 169.609,107.983 169.738,107.636 170.157 M319.784 170.100 C 319.678 170.375,319.639 181.220,319.696 194.200 L 319.800 217.800 330.951 217.906 C 339.058 217.984,342.258 217.884,342.670 217.542 C 343.151 217.143,343.220 213.725,343.119 195.355 L 343.000 173.639 341.600 172.272 C 340.830 171.520,339.968 170.611,339.684 170.252 C 339.005 169.394,320.109 169.249,319.784 170.100 M364.000 268.800 L 364.000 273.600 368.800 273.600 L 373.600 273.600 373.600 268.800 L 373.600 264.000 368.800 264.000 L 364.000 264.000 364.000 268.800 " stroke="none" fill="#d4d3d4" fill-rule="evenodd"></path><path id="path1" d="M276.080 169.680 C 275.382 170.378,275.382 304.822,276.080 305.520 C 276.585 306.025,297.688 306.248,298.954 305.762 C 299.512 305.548,300.785 303.213,303.185 298.000 C 304.922 294.225,309.407 288.922,312.400 287.103 C 313.170 286.635,314.289 285.852,314.888 285.362 C 315.486 284.873,316.913 284.161,318.060 283.780 C 319.207 283.399,320.715 282.751,321.412 282.340 C 324.684 280.410,339.213 280.580,341.600 282.576 C 341.930 282.852,343.071 283.314,344.135 283.601 C 345.200 283.889,346.730 284.573,347.535 285.123 C 349.173 286.240,351.487 286.906,351.826 286.358 C 351.948 286.160,351.615 285.834,351.086 285.633 C 349.806 285.146,349.592 282.576,349.624 268.040 C 349.653 254.418,349.761 253.651,351.945 251.466 L 353.607 249.805 363.791 249.658 C 374.738 249.501,375.980 249.262,373.788 247.734 C 373.208 247.330,372.164 246.536,371.467 245.969 C 370.770 245.402,369.390 244.623,368.400 244.238 C 367.410 243.853,366.150 243.132,365.600 242.636 C 365.050 242.140,363.848 241.521,362.929 241.260 C 362.010 240.999,360.508 240.159,359.591 239.393 C 358.674 238.627,357.685 238.000,357.393 238.000 C 357.101 238.000,356.323 237.547,355.665 236.993 C 355.006 236.439,353.508 235.541,352.334 234.996 C 351.160 234.452,349.692 233.600,349.072 233.103 C 347.946 232.202,347.901 232.200,329.272 231.985 C 308.680 231.748,309.962 231.908,307.772 229.289 L 306.200 227.409 306.092 198.836 C 306.016 178.746,305.853 170.105,305.543 169.732 C 304.933 168.996,276.813 168.947,276.080 169.680 M336.946 244.029 C 337.988 244.848,338.000 244.919,338.000 250.029 C 338.000 257.387,339.124 256.800,325.029 256.800 L 313.658 256.800 312.829 255.746 C 311.476 254.026,311.588 245.576,312.982 244.182 L 313.964 243.200 324.928 243.200 C 335.414 243.200,335.938 243.236,336.946 244.029 M363.779 264.111 C 363.666 264.406,363.624 266.796,363.687 269.423 L 363.800 274.200 368.543 274.313 C 374.702 274.460,374.452 274.706,374.312 268.641 L 374.200 263.800 369.092 263.688 C 365.115 263.601,363.939 263.695,363.779 264.111 M373.600 268.800 L 373.600 273.600 368.800 273.600 L 364.000 273.600 364.000 268.800 L 364.000 264.000 368.800 264.000 L 373.600 264.000 373.600 268.800 M26.080 269.680 C 25.390 270.370,25.390 304.830,26.080 305.520 C 26.581 306.021,35.350 306.224,36.554 305.762 C 37.114 305.547,38.485 303.027,40.776 298.000 C 42.691 293.800,46.304 289.588,50.400 286.781 C 51.170 286.253,52.144 285.506,52.565 285.120 C 52.986 284.734,54.288 284.141,55.458 283.800 C 56.627 283.460,58.216 282.810,58.987 282.354 C 62.084 280.528,75.285 280.538,78.746 282.370 C 79.546 282.794,81.100 283.453,82.200 283.836 C 83.300 284.218,84.650 284.917,85.200 285.389 C 85.750 285.860,86.944 286.719,87.854 287.298 C 89.907 288.604,93.562 292.414,94.510 294.236 C 95.642 296.412,98.439 296.275,99.607 293.987 C 100.537 292.164,103.805 288.831,106.200 287.264 C 107.080 286.688,108.171 285.836,108.624 285.370 C 109.078 284.903,110.518 284.189,111.824 283.781 C 113.131 283.373,114.777 282.703,115.483 282.291 C 118.413 280.579,131.362 280.565,134.649 282.271 C 135.502 282.713,137.190 283.400,138.400 283.796 C 139.610 284.192,141.191 285.030,141.914 285.658 C 142.637 286.286,143.387 286.800,143.582 286.800 C 144.269 286.800,149.804 292.193,150.550 293.588 C 150.964 294.365,151.715 295.490,152.218 296.090 C 152.720 296.689,153.355 297.859,153.629 298.690 C 154.337 300.835,156.654 305.261,157.276 305.655 C 158.167 306.220,260.953 306.087,261.520 305.520 C 262.210 304.830,262.210 270.370,261.520 269.680 C 260.821 268.981,26.779 268.981,26.080 269.680 M353.158 288.650 C 352.687 289.218,352.852 289.509,354.466 290.950 C 356.425 292.700,358.957 296.419,359.797 298.779 C 360.729 301.403,362.844 305.195,363.599 305.600 C 364.692 306.184,373.723 306.117,374.320 305.520 C 374.998 304.842,374.998 289.158,374.320 288.480 C 373.494 287.654,353.854 287.812,353.158 288.650 " stroke="none" fill="#fa9a13" fill-rule="evenodd"></path><path id="path2" d="M25.776 106.622 C 25.026 107.223,25.030 107.230,25.874 106.822 C 27.103 106.228,260.497 106.228,261.726 106.822 C 262.570 107.230,262.574 107.223,261.824 106.622 C 260.636 105.670,26.964 105.670,25.776 106.622 M24.996 181.400 C 24.996 222.100,25.043 238.691,25.100 218.268 C 25.157 197.846,25.157 164.546,25.100 144.268 C 25.043 123.991,24.996 140.700,24.996 181.400 M262.596 181.400 C 262.596 222.100,262.643 238.691,262.700 218.268 C 262.757 197.846,262.757 164.546,262.700 144.268 C 262.643 123.991,262.596 140.700,262.596 181.400 M46.451 158.035 C 44.479 159.605,43.688 160.984,44.129 162.083 C 44.243 162.367,44.357 162.150,44.381 161.600 C 44.430 160.501,44.785 159.989,46.740 158.200 L 48.052 157.000 64.126 156.791 L 80.200 156.582 64.352 156.491 L 48.505 156.400 46.451 158.035 M96.451 158.035 C 94.479 159.605,93.688 160.984,94.129 162.083 C 94.243 162.367,94.357 162.150,94.381 161.600 C 94.430 160.501,94.785 159.989,96.740 158.200 L 98.051 157.000 109.926 156.788 L 121.800 156.577 110.152 156.488 L 98.505 156.400 96.451 158.035 M170.365 156.700 C 181.183 156.775,186.297 156.949,186.665 157.254 C 187.381 157.849,187.430 167.210,186.720 167.920 C 186.370 168.270,183.253 168.400,175.196 168.400 C 165.805 168.400,164.037 168.493,163.376 169.022 C 162.626 169.623,162.630 169.630,163.474 169.222 C 164.021 168.957,168.439 168.800,175.312 168.800 C 188.676 168.800,187.600 169.349,187.600 162.530 C 187.600 155.753,189.392 156.380,170.369 156.495 L 154.600 156.590 170.365 156.700 M220.365 156.700 C 231.183 156.775,236.297 156.949,236.665 157.254 C 237.381 157.849,237.430 167.210,236.720 167.920 C 236.370 168.270,233.253 168.400,225.196 168.400 C 215.805 168.400,214.037 168.493,213.376 169.022 C 212.626 169.623,212.630 169.630,213.474 169.222 C 214.021 168.957,218.439 168.800,225.312 168.800 C 238.676 168.800,237.600 169.349,237.600 162.530 C 237.600 155.753,239.392 156.380,220.369 156.495 L 204.600 156.590 220.365 156.700 M123.200 157.195 C 123.750 157.374,125.328 158.079,126.706 158.761 C 128.085 159.442,129.331 160.000,129.475 160.000 C 130.770 160.000,135.996 167.838,136.809 171.000 C 137.097 172.117,137.121 172.130,137.159 171.194 C 137.182 170.640,136.744 169.380,136.187 168.394 C 135.630 167.407,134.889 165.970,134.541 165.200 C 133.143 162.104,125.596 156.695,122.870 156.834 C 122.464 156.855,122.594 156.997,123.200 157.195 M151.943 158.743 L 150.000 160.686 150.000 187.542 L 150.000 214.398 151.466 216.020 C 152.272 216.912,153.307 217.842,153.766 218.086 C 154.224 218.331,153.655 217.633,152.500 216.535 L 150.400 214.540 150.400 187.600 L 150.400 160.660 152.434 158.730 C 153.553 157.669,154.338 156.800,154.177 156.800 C 154.017 156.800,153.011 157.674,151.943 158.743 M201.943 158.743 L 200.000 160.686 200.000 187.542 L 200.000 214.398 201.466 216.020 C 202.272 216.912,203.307 217.842,203.766 218.086 C 204.224 218.331,203.655 217.633,202.500 216.535 L 200.400 214.540 200.400 187.600 L 200.400 160.660 202.434 158.730 C 203.553 157.669,204.338 156.800,204.177 156.800 C 204.017 156.800,203.011 157.674,201.943 158.743 M81.353 162.600 C 81.353 165.240,81.418 166.268,81.497 164.884 C 81.575 163.501,81.574 161.341,81.495 160.084 C 81.416 158.828,81.352 159.960,81.353 162.600 M43.789 190.600 C 43.789 205.340,43.839 211.312,43.900 203.871 C 43.961 196.430,43.961 184.370,43.900 177.071 C 43.839 169.772,43.789 175.860,43.789 190.600 M93.789 190.600 C 93.789 205.340,93.839 211.312,93.900 203.871 C 93.961 196.430,93.961 184.370,93.900 177.071 C 93.839 169.772,93.789 175.860,93.789 190.600 M63.524 168.699 C 66.673 168.767,71.713 168.767,74.724 168.699 C 77.736 168.631,75.160 168.576,69.000 168.576 C 62.840 168.576,60.376 168.632,63.524 168.699 M110.482 168.696 C 111.958 168.773,114.478 168.773,116.082 168.697 C 117.687 168.621,116.480 168.558,113.400 168.558 C 110.320 168.557,109.007 168.619,110.482 168.696 M324.700 168.699 C 327.395 168.768,331.805 168.768,334.500 168.699 C 337.195 168.630,334.990 168.573,329.600 168.573 C 324.210 168.573,322.005 168.630,324.700 168.699 M121.417 169.545 C 122.086 169.953,123.121 170.867,123.717 171.574 C 124.313 172.282,124.800 172.690,124.800 172.482 C 124.800 171.935,121.314 168.800,120.709 168.801 C 120.429 168.802,120.748 169.137,121.417 169.545 M341.411 170.453 C 342.398 171.362,343.367 172.667,343.566 173.353 C 343.848 174.325,343.936 174.405,343.964 173.714 C 344.009 172.614,340.900 168.856,339.909 168.813 C 339.749 168.806,340.425 169.544,341.411 170.453 M162.487 175.038 C 162.370 182.071,161.697 181.600,171.870 181.600 C 181.797 181.600,181.200 181.212,181.200 187.670 C 181.200 193.969,181.789 193.600,171.730 193.600 C 161.675 193.600,162.328 193.130,162.501 200.245 L 162.626 205.400 162.713 200.180 C 162.825 193.486,162.069 194.000,171.810 194.000 C 182.032 194.000,181.600 194.285,181.600 187.544 C 181.600 180.930,182.020 181.200,171.723 181.200 C 162.112 181.200,162.863 181.718,162.699 174.974 L 162.574 169.800 162.487 175.038 M212.487 175.038 C 212.370 182.071,211.697 181.600,221.870 181.600 C 231.797 181.600,231.200 181.212,231.200 187.670 C 231.200 193.969,231.789 193.600,221.730 193.600 C 211.675 193.600,212.328 193.130,212.501 200.245 L 212.626 205.400 212.713 200.180 C 212.825 193.486,212.069 194.000,221.810 194.000 C 232.032 194.000,231.600 194.285,231.600 187.544 C 231.600 180.930,232.020 181.200,221.723 181.200 C 212.112 181.200,212.863 181.718,212.699 174.974 L 212.574 169.800 212.487 175.038 M318.588 193.800 C 318.588 207.000,318.638 212.342,318.700 205.671 C 318.761 199.001,318.761 188.201,318.700 181.671 C 318.638 175.142,318.588 180.600,318.588 193.800 M56.076 175.024 C 56.015 178.899,56.124 180.000,56.630 180.624 C 56.976 181.051,57.111 181.130,56.930 180.800 C 56.748 180.470,56.499 177.950,56.376 175.200 L 56.153 170.200 56.076 175.024 M106.076 175.024 C 106.015 178.899,106.124 180.000,106.630 180.624 C 106.976 181.051,107.111 181.130,106.930 180.800 C 106.748 180.470,106.499 177.950,106.376 175.200 L 106.153 170.200 106.076 175.024 M137.331 175.000 C 137.333 176.540,137.405 177.121,137.492 176.291 C 137.579 175.461,137.577 174.201,137.489 173.491 C 137.400 172.781,137.329 173.460,137.331 175.000 M124.914 175.000 C 124.917 176.100,124.995 176.503,125.087 175.895 C 125.179 175.286,125.177 174.386,125.082 173.895 C 124.987 173.403,124.911 173.900,124.914 175.000 M122.876 179.314 L 121.191 181.000 114.295 181.219 L 107.400 181.437 113.920 181.519 C 121.052 181.608,121.652 181.469,123.771 179.240 C 125.576 177.342,124.781 177.407,122.876 179.314 M136.854 179.148 C 136.825 179.669,136.125 181.199,135.300 182.548 C 133.192 185.994,133.149 189.151,135.165 192.400 C 135.916 193.610,136.663 195.140,136.824 195.800 C 137.091 196.890,137.122 196.909,137.159 196.008 C 137.182 195.462,136.525 193.932,135.700 192.608 C 133.524 189.116,133.534 186.069,135.733 182.539 C 136.742 180.919,137.205 179.757,137.087 179.139 L 136.909 178.200 136.854 179.148 M61.500 181.498 C 63.755 181.570,67.445 181.570,69.700 181.498 C 71.955 181.427,70.110 181.369,65.600 181.369 C 61.090 181.369,59.245 181.427,61.500 181.498 M74.954 187.600 C 74.954 190.350,75.018 191.475,75.096 190.100 C 75.174 188.725,75.174 186.475,75.096 185.100 C 75.018 183.725,74.954 184.850,74.954 187.600 M61.500 193.898 C 63.755 193.970,67.445 193.970,69.700 193.898 C 71.955 193.827,70.110 193.769,65.600 193.769 C 61.090 193.769,59.245 193.827,61.500 193.898 M114.284 193.981 L 121.169 194.200 122.984 195.983 C 124.973 197.937,125.492 198.043,123.655 196.121 C 121.246 193.599,121.219 193.593,114.011 193.681 L 107.400 193.763 114.284 193.981 M56.414 194.774 C 56.158 195.253,56.000 199.713,56.000 206.494 C 56.000 219.522,56.572 218.374,50.020 218.486 L 45.000 218.573 49.954 218.699 C 56.970 218.878,56.400 219.955,56.400 206.512 C 56.400 199.719,56.558 195.253,56.814 194.774 C 57.042 194.348,57.138 194.000,57.028 194.000 C 56.918 194.000,56.642 194.348,56.414 194.774 M106.414 194.774 C 106.158 195.253,106.000 199.713,106.000 206.494 C 106.000 219.522,106.572 218.374,100.020 218.486 L 95.000 218.573 99.954 218.699 C 106.970 218.878,106.400 219.955,106.400 206.512 C 106.400 199.719,106.558 195.253,106.814 194.774 C 107.042 194.348,107.138 194.000,107.028 194.000 C 106.918 194.000,106.642 194.348,106.414 194.774 M137.293 207.451 C 137.183 219.352,137.747 218.334,131.175 218.501 L 126.200 218.627 131.238 218.714 C 138.160 218.832,137.642 219.772,137.500 207.361 L 137.385 197.400 137.293 207.451 M124.973 207.800 C 124.973 213.080,125.030 215.185,125.099 212.477 C 125.168 209.769,125.168 205.449,125.099 202.877 C 125.029 200.305,124.972 202.520,124.973 207.800 M163.376 206.178 C 164.037 206.707,165.805 206.800,175.196 206.800 C 183.253 206.800,186.370 206.930,186.720 207.280 C 187.384 207.944,187.384 217.256,186.720 217.920 C 186.366 218.274,182.081 218.425,170.420 218.495 L 154.600 218.590 170.363 218.700 C 189.403 218.832,187.600 219.470,187.600 212.600 C 187.600 205.867,188.662 206.400,175.242 206.400 C 168.418 206.400,164.021 206.242,163.474 205.978 C 162.630 205.570,162.626 205.577,163.376 206.178 M213.376 206.178 C 214.037 206.707,215.805 206.800,225.196 206.800 C 238.334 206.800,237.200 206.252,237.200 212.600 C 237.200 215.831,237.040 217.600,236.720 217.920 C 236.366 218.274,232.081 218.425,220.420 218.495 L 204.600 218.590 220.363 218.700 C 239.403 218.832,237.600 219.470,237.600 212.600 C 237.600 205.867,238.662 206.400,225.242 206.400 C 218.418 206.400,214.021 206.242,213.474 205.978 C 212.630 205.570,212.626 205.577,213.376 206.178 M343.205 218.194 C 342.794 218.689,340.802 218.807,331.256 218.900 L 319.800 219.013 331.238 219.106 C 342.231 219.196,342.704 219.169,343.400 218.400 C 343.798 217.960,344.028 217.600,343.911 217.600 C 343.794 217.600,343.476 217.867,343.205 218.194 M25.776 256.178 C 26.964 257.130,260.636 257.130,261.824 256.178 C 262.574 255.577,262.570 255.570,261.726 255.978 C 260.497 256.572,27.103 256.572,25.874 255.978 C 25.030 255.570,25.026 255.577,25.776 256.178 M68.400 296.291 C 67.850 296.391,67.094 296.747,66.719 297.081 C 66.345 297.416,64.781 297.887,63.245 298.129 C 60.944 298.491,60.377 298.732,60.031 299.493 C 59.799 300.000,59.149 300.591,58.585 300.806 C 57.994 301.030,57.382 301.705,57.140 302.400 C 56.879 303.148,56.355 303.697,55.757 303.847 C 54.768 304.095,54.641 304.403,54.205 307.600 C 54.070 308.590,53.721 309.764,53.430 310.209 C 52.674 311.364,52.207 314.400,52.785 314.400 C 53.459 314.400,54.400 316.941,54.400 318.759 C 54.400 320.246,55.171 321.600,56.018 321.600 C 56.217 321.600,56.657 322.137,56.996 322.793 C 57.336 323.450,58.138 324.258,58.778 324.589 C 59.419 324.920,60.047 325.517,60.173 325.916 C 60.351 326.476,61.100 326.742,63.453 327.081 C 65.131 327.322,66.620 327.708,66.762 327.938 C 67.347 328.885,70.276 329.146,71.098 328.324 C 71.569 327.853,72.932 327.369,74.580 327.086 C 76.791 326.708,77.350 326.458,77.629 325.722 C 77.818 325.227,78.421 324.710,78.970 324.572 C 79.523 324.433,80.335 323.698,80.794 322.921 C 81.248 322.150,81.952 321.433,82.358 321.327 C 82.950 321.172,83.137 320.620,83.304 318.539 C 83.458 316.621,83.739 315.704,84.383 315.018 C 85.352 313.986,85.226 311.840,84.094 310.100 C 83.771 309.605,83.415 308.043,83.302 306.630 C 83.116 304.320,82.997 304.036,82.122 303.816 C 81.518 303.665,80.992 303.121,80.735 302.386 C 80.483 301.663,79.806 300.956,79.001 300.573 C 78.274 300.229,77.596 299.626,77.493 299.235 C 77.353 298.701,76.734 298.455,75.011 298.253 C 72.572 297.966,71.202 297.425,70.680 296.542 C 70.355 295.990,70.165 295.970,68.400 296.291 M124.800 296.291 C 124.250 296.391,123.500 296.741,123.132 297.069 C 122.765 297.397,121.223 297.857,119.705 298.092 C 117.305 298.464,116.861 298.668,116.292 299.660 C 115.932 300.287,115.314 300.800,114.919 300.801 C 114.498 300.802,113.868 301.424,113.400 302.301 C 112.926 303.190,112.254 303.849,111.749 303.921 C 111.023 304.025,110.858 304.405,110.619 306.521 C 110.466 307.885,110.083 309.543,109.769 310.206 C 108.503 312.880,108.366 314.044,109.234 314.747 C 110.077 315.430,110.774 317.719,110.790 319.853 C 110.797 320.760,111.018 321.164,111.590 321.313 C 112.024 321.427,112.752 322.150,113.206 322.921 C 113.665 323.698,114.477 324.433,115.030 324.572 C 115.578 324.709,116.220 325.246,116.456 325.764 C 116.809 326.537,117.292 326.752,119.150 326.963 C 120.396 327.103,121.915 327.479,122.528 327.796 C 124.956 329.056,126.445 329.234,127.162 328.348 C 127.629 327.771,128.665 327.400,130.711 327.078 C 132.598 326.781,133.600 326.441,133.600 326.098 C 133.600 325.809,134.237 325.197,135.015 324.738 C 135.793 324.279,136.691 323.398,137.010 322.780 C 137.330 322.162,137.953 321.542,138.395 321.402 C 139.226 321.138,139.390 320.684,139.796 317.546 C 139.939 316.436,140.358 315.400,140.839 314.965 C 141.737 314.152,141.595 311.775,140.555 310.187 C 140.255 309.730,139.858 308.241,139.671 306.877 C 139.485 305.514,139.258 304.354,139.166 304.299 C 139.075 304.245,138.640 304.003,138.200 303.763 C 137.760 303.523,137.173 302.865,136.896 302.300 C 136.619 301.736,135.764 300.904,134.996 300.451 C 134.228 299.998,133.600 299.372,133.600 299.060 C 133.600 298.656,132.835 298.411,130.944 298.209 C 128.913 297.991,128.062 297.698,127.326 296.962 C 126.797 296.433,126.237 296.025,126.082 296.054 C 125.927 296.084,125.350 296.191,124.800 296.291 M331.000 296.293 C 330.340 296.389,329.494 296.742,329.119 297.078 C 328.745 297.414,327.170 297.889,325.619 298.133 C 323.316 298.496,322.800 298.711,322.800 299.309 C 322.800 299.770,322.272 300.261,321.373 300.637 C 320.433 301.030,319.808 301.631,319.540 302.400 C 319.316 303.042,318.743 303.689,318.267 303.838 C 317.047 304.218,316.813 304.722,316.804 307.000 C 316.799 308.100,316.532 309.504,316.211 310.120 C 314.879 312.673,314.780 313.943,315.829 314.993 C 316.620 315.784,316.800 316.369,316.800 318.153 C 316.800 320.240,317.438 321.600,318.418 321.600 C 318.617 321.600,319.066 322.153,319.415 322.830 C 319.770 323.515,320.572 324.241,321.228 324.470 C 321.923 324.712,322.499 325.253,322.634 325.792 C 322.830 326.576,323.210 326.743,325.331 326.982 C 326.689 327.135,328.343 327.517,329.006 327.831 C 331.694 329.103,332.843 329.235,333.558 328.352 C 334.029 327.770,335.059 327.401,337.111 327.078 C 338.973 326.785,340.000 326.439,340.000 326.106 C 340.000 325.821,340.558 325.249,341.240 324.834 C 341.922 324.419,342.831 323.503,343.260 322.797 C 343.689 322.092,344.353 321.433,344.735 321.333 C 345.255 321.197,345.544 320.429,345.882 318.286 C 346.201 316.257,346.572 315.228,347.152 314.758 C 348.041 314.038,347.904 312.890,346.598 310.140 C 346.266 309.441,345.882 307.786,345.744 306.464 C 345.523 304.349,345.375 304.030,344.520 303.816 C 343.924 303.666,343.392 303.122,343.142 302.407 C 342.919 301.766,342.121 300.878,341.368 300.434 C 340.616 299.990,340.000 299.377,340.000 299.070 C 340.000 298.686,339.271 298.438,337.642 298.267 C 334.932 297.984,333.200 297.309,333.200 296.536 C 333.200 296.241,332.975 296.027,332.700 296.060 C 332.425 296.093,331.660 296.198,331.000 296.293 M76.009 305.600 C 76.503 306.383,76.503 318.818,76.008 319.600 C 75.695 320.095,74.435 320.200,68.800 320.200 C 63.165 320.200,61.905 320.095,61.592 319.600 C 61.149 318.900,61.072 306.417,61.506 305.746 C 62.233 304.623,75.309 304.491,76.009 305.600 M132.409 305.600 C 132.903 306.383,132.903 318.818,132.408 319.600 C 131.890 320.420,118.733 320.493,117.920 319.681 C 117.285 319.046,116.943 308.905,117.486 306.808 C 117.964 304.964,118.568 304.829,125.915 304.922 C 130.855 304.985,132.103 305.115,132.409 305.600 M338.481 305.520 C 339.223 306.263,339.223 318.937,338.480 319.680 C 337.738 320.423,325.065 320.423,324.321 319.680 C 322.941 318.303,323.465 305.804,324.928 305.184 C 326.295 304.605,337.853 304.891,338.481 305.520 " stroke="none" fill="#54545c" fill-rule="evenodd"></path><path id="path3" d="M74.491 42.283 L 73.583 42.458 73.691 50.129 L 73.800 57.800 81.400 57.800 L 89.000 57.800 89.108 50.152 L 89.217 42.503 87.958 42.252 C 86.584 41.977,75.957 42.002,74.491 42.283 M99.291 42.283 L 98.383 42.458 98.491 50.129 L 98.600 57.800 137.500 57.902 L 176.400 58.004 176.400 50.252 L 176.400 42.500 175.150 42.250 C 173.766 41.973,100.740 42.005,99.291 42.283 M123.600 75.000 L 123.600 82.800 162.600 82.800 L 201.600 82.800 201.600 75.000 L 201.600 67.200 162.600 67.200 L 123.600 67.200 123.600 75.000 M13.408 92.298 C 12.312 92.382,11.280 92.665,11.114 92.926 C 10.627 93.691,10.727 318.716,11.214 319.626 C 11.609 320.365,12.175 320.400,23.766 320.400 L 35.905 320.400 36.069 324.159 C 36.242 328.106,36.626 329.062,38.129 329.276 C 38.841 329.377,39.022 329.705,39.122 331.077 C 39.240 332.696,39.295 332.759,40.722 332.877 C 42.115 332.993,42.207 333.086,42.324 334.500 C 42.392 335.325,42.596 336.000,42.777 336.000 C 42.959 336.000,43.201 336.359,43.315 336.798 C 43.430 337.237,43.856 337.718,44.262 337.868 C 44.668 338.017,45.144 338.378,45.320 338.670 C 45.496 338.961,46.261 339.200,47.020 339.200 C 48.330 339.200,48.400 339.271,48.400 340.600 L 48.400 342.000 30.850 342.000 C 21.197 342.000,12.734 342.113,12.042 342.252 L 10.783 342.503 10.892 350.152 L 11.000 357.800 200.000 357.800 L 389.000 357.800 389.108 350.152 L 389.217 342.503 387.958 342.252 C 387.266 342.113,378.802 342.000,369.150 342.000 L 351.600 342.000 351.600 340.624 C 351.600 339.324,351.682 339.241,353.097 339.124 C 354.174 339.035,354.633 338.793,354.733 338.264 C 354.912 337.318,356.118 336.112,357.064 335.933 C 357.593 335.833,357.835 335.374,357.924 334.297 C 358.041 332.882,358.124 332.800,359.424 332.800 C 360.788 332.800,360.800 332.784,360.800 331.000 C 360.800 329.371,360.891 329.200,361.751 329.200 C 363.288 329.200,363.698 328.249,363.911 324.191 L 364.109 320.400 376.175 320.400 C 385.025 320.400,388.368 320.272,388.720 319.920 C 389.229 319.411,389.461 237.945,388.957 236.633 C 388.804 236.234,388.230 236.000,387.402 236.000 C 386.225 236.000,386.063 235.859,385.834 234.639 C 385.529 233.017,385.073 232.800,381.967 232.800 L 379.600 232.800 379.600 231.443 C 379.600 229.818,379.174 229.600,375.993 229.600 L 373.651 229.600 373.525 228.300 C 373.412 227.128,373.235 226.965,371.731 226.650 C 370.447 226.380,370.006 226.077,369.820 225.336 C 369.530 224.180,368.177 223.600,365.774 223.600 C 364.098 223.600,364.000 223.538,364.000 222.480 C 364.000 220.807,363.319 220.400,360.520 220.400 L 358.000 220.400 357.998 192.700 C 357.995 162.778,357.959 162.217,355.990 161.474 C 355.090 161.134,354.788 160.714,354.587 159.521 C 354.340 158.063,354.265 158.000,352.765 158.000 C 351.384 158.000,351.200 157.888,351.200 157.049 C 351.200 154.923,352.704 155.008,313.139 154.892 L 276.400 154.784 276.400 123.651 L 276.400 92.517 273.340 92.259 C 270.156 91.990,16.912 92.028,13.408 92.298 M262.240 105.906 C 263.594 106.810,263.600 107.138,263.600 181.400 C 263.600 255.662,263.594 255.990,262.240 256.894 C 261.233 257.566,25.703 257.246,25.029 256.571 C 24.066 255.609,24.066 107.191,25.029 106.229 C 25.703 105.554,261.233 105.234,262.240 105.906 M49.800 157.492 C 49.140 157.589,48.038 158.239,47.352 158.935 C 46.666 159.631,45.809 160.433,45.449 160.718 C 44.852 161.191,44.804 163.730,44.897 189.518 L 45.000 217.800 49.743 217.913 C 56.166 218.066,55.600 219.238,55.600 205.780 C 55.600 196.020,55.687 194.370,56.229 193.829 C 56.574 193.483,56.889 193.164,56.929 193.120 C 56.968 193.076,60.870 192.941,65.600 192.820 L 74.200 192.600 74.200 187.600 L 74.200 182.600 65.600 182.380 C 60.870 182.259,56.968 182.124,56.929 182.080 C 56.889 182.036,56.574 181.717,56.229 181.371 C 55.228 180.371,55.310 169.587,56.325 168.668 C 56.955 168.098,58.557 167.999,68.625 167.906 L 80.200 167.800 80.200 162.600 L 80.200 157.400 65.600 157.358 C 57.570 157.334,50.460 157.395,49.800 157.492 M99.800 157.495 C 99.140 157.591,98.038 158.239,97.352 158.935 C 96.666 159.631,95.809 160.433,95.449 160.718 C 94.852 161.191,94.804 163.730,94.897 189.518 L 95.000 217.800 99.743 217.913 C 106.163 218.066,105.599 219.227,105.606 205.851 C 105.614 191.706,104.898 192.800,114.148 192.800 C 120.767 192.800,121.953 193.038,123.734 194.725 C 125.754 196.639,125.789 196.836,126.000 207.600 L 126.200 217.800 130.943 217.913 C 134.098 217.988,135.873 217.871,136.243 217.564 C 137.503 216.519,136.785 196.084,135.453 195.070 C 132.255 192.635,132.438 184.801,135.823 179.200 C 136.786 177.606,136.469 171.164,135.367 169.931 C 134.518 168.983,133.200 165.852,133.200 164.784 C 133.200 164.460,132.670 163.961,132.023 163.674 C 131.376 163.388,130.622 162.646,130.347 162.026 C 129.962 161.156,129.340 160.739,127.624 160.201 C 126.401 159.817,124.910 159.156,124.311 158.732 C 122.430 157.401,106.108 156.576,99.800 157.495 M156.084 157.491 C 155.180 157.602,154.178 158.240,152.884 159.527 L 151.000 161.400 151.000 187.600 L 151.000 213.800 153.000 215.800 L 155.000 217.800 170.323 217.930 C 188.471 218.083,186.800 218.620,186.800 212.631 C 186.800 206.708,187.904 207.201,174.620 207.194 C 160.678 207.186,161.600 207.705,161.600 199.871 C 161.600 192.616,160.982 193.050,171.664 192.800 L 180.200 192.600 180.200 187.600 L 180.200 182.600 171.664 182.400 C 160.982 182.150,161.600 182.584,161.600 175.329 C 161.600 167.495,160.678 168.014,174.620 168.006 C 182.806 168.002,185.970 167.870,186.320 167.520 C 186.980 166.860,186.980 158.340,186.320 157.680 C 185.860 157.220,159.609 157.055,156.084 157.491 M206.084 157.491 C 205.180 157.602,204.178 158.240,202.884 159.527 L 201.000 161.400 201.000 187.600 L 201.000 213.800 203.000 215.800 L 205.000 217.800 220.323 217.930 C 238.471 218.083,236.800 218.620,236.800 212.631 C 236.800 206.708,237.904 207.201,224.620 207.194 C 210.678 207.186,211.600 207.705,211.600 199.871 C 211.600 192.616,210.982 193.050,221.664 192.800 L 230.200 192.600 230.200 187.600 L 230.200 182.600 221.664 182.400 C 210.982 182.150,211.600 182.584,211.600 175.329 C 211.600 167.495,210.678 168.014,224.620 168.006 C 237.899 167.999,236.800 168.487,236.800 162.600 C 236.800 159.680,236.636 157.996,236.320 157.680 C 235.860 157.220,209.609 157.055,206.084 157.491 M123.983 169.835 C 127.023 173.096,126.479 179.155,122.938 181.478 C 122.016 182.083,120.776 182.222,115.286 182.335 C 105.222 182.542,105.600 182.825,105.600 175.103 C 105.600 167.400,104.924 167.922,114.712 168.077 L 122.459 168.200 123.983 169.835 M306.218 168.982 L 307.200 169.964 307.205 198.282 L 307.209 226.600 309.039 228.500 C 310.046 229.545,310.899 230.434,310.935 230.475 C 310.971 230.517,319.611 230.652,330.135 230.775 L 349.270 231.000 350.193 232.073 C 350.700 232.663,351.810 233.336,352.658 233.568 C 354.447 234.058,356.800 235.418,356.800 235.963 C 356.800 236.169,357.416 236.541,358.168 236.790 C 358.921 237.038,360.289 237.786,361.208 238.452 C 362.127 239.118,363.701 240.015,364.706 240.445 C 365.711 240.876,366.728 241.470,366.966 241.765 C 367.205 242.061,368.294 242.634,369.387 243.039 C 372.048 244.025,375.600 247.036,375.600 248.305 C 375.600 250.505,375.248 250.584,364.514 250.800 L 354.562 251.000 352.681 252.937 L 350.800 254.873 350.800 268.883 L 350.800 282.892 352.848 284.846 L 354.897 286.800 364.433 286.800 C 376.742 286.800,375.600 285.757,375.600 297.000 C 375.600 307.796,375.985 307.200,369.010 307.200 C 363.601 307.200,362.265 306.889,360.898 305.311 C 360.126 304.421,358.400 299.726,358.400 298.519 C 358.400 298.302,358.021 297.781,357.557 297.362 C 357.094 296.943,356.392 295.970,355.997 295.200 C 355.222 293.689,349.570 288.000,348.844 288.000 C 348.601 288.000,347.727 287.406,346.901 286.680 C 345.957 285.850,344.584 285.162,343.200 284.826 C 341.990 284.533,340.323 283.952,339.496 283.536 C 335.974 281.764,327.693 281.707,323.564 283.426 C 322.334 283.937,320.444 284.570,319.364 284.832 C 318.284 285.093,316.860 285.803,316.200 286.409 C 315.540 287.015,314.460 287.790,313.800 288.133 C 312.102 289.013,307.784 293.278,306.983 294.866 C 306.613 295.600,305.808 296.740,305.195 297.400 C 304.484 298.165,303.897 299.433,303.576 300.898 C 302.244 306.988,301.718 307.197,287.682 307.199 L 276.364 307.200 275.382 306.218 L 274.400 305.236 274.400 237.600 L 274.400 169.964 275.382 168.982 L 276.364 168.000 290.800 168.000 L 305.236 168.000 306.218 168.982 M342.391 169.439 C 343.321 170.280,344.153 171.487,344.390 172.339 C 345.125 174.987,344.930 217.637,344.177 218.711 C 343.330 219.921,320.048 220.129,318.731 218.938 C 317.655 217.964,317.588 169.918,318.662 168.731 C 319.272 168.057,320.167 168.000,330.061 168.000 L 340.798 168.000 342.391 169.439 M313.680 244.880 C 312.961 245.599,313.021 254.554,313.749 255.157 C 314.137 255.480,317.556 255.582,325.449 255.506 L 336.600 255.400 336.713 250.456 C 336.788 247.153,336.672 245.328,336.364 244.956 C 335.738 244.202,314.430 244.130,313.680 244.880 M374.856 262.364 C 376.416 263.625,376.542 273.494,375.018 275.018 C 373.494 276.542,363.625 276.416,362.364 274.856 C 360.696 272.794,361.423 262.767,363.294 262.015 C 365.172 261.260,373.814 261.521,374.856 262.364 M262.146 268.829 L 263.200 269.658 263.200 287.600 L 263.200 305.542 262.146 306.371 C 260.622 307.570,158.784 307.693,156.408 306.499 C 154.569 305.575,153.436 303.798,152.812 300.855 C 152.485 299.316,151.958 298.125,151.354 297.557 C 150.833 297.067,150.048 295.926,149.610 295.021 C 148.835 293.419,144.617 289.332,142.200 287.841 C 141.540 287.433,140.723 286.754,140.385 286.332 C 140.042 285.904,138.535 285.237,136.985 284.826 C 135.453 284.420,133.591 283.773,132.846 283.388 C 129.791 281.807,119.732 281.835,117.297 283.431 C 116.779 283.770,115.123 284.360,113.616 284.743 C 111.805 285.203,110.354 285.879,109.338 286.737 C 102.644 292.389,101.216 293.780,100.327 295.514 C 98.589 298.903,95.291 298.915,93.568 295.537 C 92.616 293.672,87.914 289.009,85.961 287.994 C 85.170 287.583,84.248 286.828,83.913 286.317 C 83.487 285.667,82.640 285.248,81.097 284.924 C 79.884 284.670,78.031 284.070,76.981 283.591 C 72.688 281.635,65.613 281.653,60.400 283.633 C 58.750 284.260,56.642 284.964,55.715 285.198 C 54.788 285.432,53.798 285.949,53.515 286.348 C 53.232 286.747,52.550 287.312,52.000 287.603 C 50.195 288.560,45.155 293.369,44.369 294.884 C 43.947 295.700,43.175 296.780,42.655 297.284 C 42.040 297.880,41.530 299.083,41.194 300.732 C 40.100 306.094,38.407 307.198,31.282 307.199 C 26.593 307.200,26.318 307.154,25.382 306.218 L 24.400 305.236 24.400 287.600 L 24.400 269.964 25.382 268.982 L 26.364 268.000 143.728 268.000 L 261.092 268.000 262.146 268.829 M76.921 295.958 C 80.961 298.056,83.260 300.402,85.505 304.713 L 87.321 308.200 87.341 312.600 L 87.362 317.000 85.526 320.495 C 81.884 327.425,76.792 330.795,69.489 331.106 L 65.178 331.289 61.689 329.564 C 54.016 325.771,50.195 320.046,50.235 312.400 L 50.256 308.200 52.168 304.600 C 57.253 295.022,67.939 291.291,76.921 295.958 M133.200 296.074 C 137.506 298.402,140.102 300.796,141.145 303.400 C 141.585 304.500,142.318 306.113,142.773 306.985 C 145.269 311.766,142.916 321.238,138.074 325.900 C 136.874 327.055,135.695 328.000,135.454 328.000 C 135.213 328.000,133.932 328.675,132.608 329.500 L 130.200 331.000 125.200 331.000 C 120.328 331.000,120.149 330.969,118.200 329.779 C 117.100 329.107,115.622 328.323,114.915 328.036 C 114.209 327.750,113.165 326.905,112.595 326.158 C 112.025 325.411,111.319 324.800,111.025 324.800 C 110.731 324.800,110.218 324.215,109.883 323.500 C 109.549 322.785,108.677 320.940,107.945 319.400 C 100.890 304.557,118.613 288.188,133.200 296.074 M339.327 295.944 C 346.119 299.559,349.992 305.604,349.999 312.600 L 350.003 316.600 347.967 320.700 C 346.848 322.955,345.758 324.800,345.545 324.800 C 345.333 324.800,344.583 325.420,343.880 326.177 C 341.140 329.125,336.745 330.941,331.910 331.125 L 327.621 331.288 323.950 329.439 C 316.653 325.764,313.108 320.442,312.868 312.800 L 312.736 308.600 314.763 304.670 C 316.662 300.986,319.789 297.262,321.022 297.216 C 321.254 297.207,322.285 296.666,323.315 296.013 C 327.608 293.291,334.288 293.262,339.327 295.944 M63.200 307.200 C 62.493 307.907,62.400 308.533,62.400 312.600 C 62.400 318.854,62.343 318.800,68.977 318.800 C 75.287 318.800,75.200 318.887,75.200 312.600 C 75.200 306.313,75.287 306.400,68.977 306.400 C 64.533 306.400,63.914 306.486,63.200 307.200 M119.462 307.131 C 118.923 307.727,118.800 308.758,118.800 312.670 C 118.800 318.952,118.643 318.800,125.131 318.800 C 131.641 318.800,131.600 318.839,131.600 312.600 C 131.600 306.351,131.651 306.400,125.062 306.400 C 120.786 306.400,120.035 306.498,119.462 307.131 M325.600 307.200 C 324.893 307.907,324.800 308.533,324.800 312.600 C 324.800 318.849,324.749 318.800,331.338 318.800 C 337.765 318.800,337.600 318.965,337.600 312.530 C 337.600 306.248,337.757 306.400,331.269 306.400 C 326.933 306.400,326.312 306.488,325.600 307.200 M298.402 323.100 C 298.406 327.078,298.975 328.775,300.402 329.060 C 301.427 329.265,301.572 329.480,301.679 330.946 C 301.796 332.543,301.851 332.604,303.300 332.724 C 304.758 332.845,304.800 332.892,304.800 334.424 C 304.800 335.683,304.947 336.000,305.530 336.000 C 306.314 336.000,307.724 337.357,308.128 338.500 C 308.290 338.958,308.793 339.200,309.587 339.200 C 310.516 339.200,310.800 339.380,310.800 339.967 C 310.800 340.389,310.909 341.019,311.043 341.367 C 311.264 341.943,303.803 342.000,228.243 342.000 L 145.200 342.000 145.200 340.600 C 145.200 339.259,145.261 339.200,146.640 339.200 C 148.606 339.200,151.600 336.158,151.600 334.161 C 151.600 332.933,151.697 332.840,153.100 332.724 C 154.552 332.604,154.604 332.546,154.722 330.925 C 154.822 329.553,155.002 329.227,155.718 329.125 C 157.000 328.942,157.753 327.027,157.930 323.500 L 158.085 320.400 228.242 320.400 L 298.400 320.400 298.402 323.100 M98.400 334.213 C 98.400 335.197,98.612 335.700,99.100 335.873 C 100.159 336.249,101.251 337.294,101.636 338.300 C 101.903 338.998,102.297 339.200,103.390 339.200 C 104.735 339.200,104.800 339.265,104.800 340.600 L 104.800 342.000 96.880 342.000 L 88.961 342.000 89.124 340.600 C 89.275 339.307,89.392 339.200,90.644 339.200 C 91.649 339.200,92.000 339.026,92.000 338.526 C 92.000 337.608,93.572 336.000,94.470 336.000 C 95.055 336.000,95.200 335.682,95.200 334.400 L 95.200 332.800 96.800 332.800 C 98.365 332.800,98.400 332.831,98.400 334.213 " stroke="none" fill="#040404" fill-rule="evenodd"></path><path id="path4" d="M25.029 106.229 C 24.066 107.191,24.066 255.609,25.029 256.571 C 25.703 257.246,261.233 257.566,262.240 256.894 C 263.594 255.990,263.600 255.662,263.600 181.400 C 263.600 107.138,263.594 106.810,262.240 105.906 C 261.233 105.234,25.703 105.554,25.029 106.229 M262.000 106.800 C 263.263 108.063,263.263 254.737,262.000 256.000 C 260.736 257.264,26.864 257.264,25.600 256.000 C 24.337 254.737,24.337 108.063,25.600 106.800 C 26.396 106.004,26.933 106.000,143.800 106.000 C 260.667 106.000,261.204 106.004,262.000 106.800 M46.891 158.100 C 44.001 160.454,44.212 158.120,44.087 189.143 C 44.003 209.979,44.094 217.431,44.436 217.843 C 45.048 218.581,54.792 218.648,55.520 217.920 C 55.870 217.570,56.000 214.436,56.000 206.320 C 56.000 192.196,54.927 193.600,65.720 193.600 C 75.544 193.600,74.800 194.092,74.800 187.600 C 74.800 181.108,75.544 181.600,65.720 181.600 C 55.436 181.600,56.000 181.972,56.000 175.182 C 56.000 170.600,56.048 170.316,56.982 169.382 L 57.964 168.400 69.102 168.400 C 82.348 168.400,81.200 168.950,81.200 162.600 C 81.200 159.369,81.040 157.600,80.720 157.280 C 80.363 156.923,76.179 156.800,64.363 156.800 L 48.487 156.800 46.891 158.100 M96.916 158.079 C 93.997 160.458,94.212 158.096,94.087 189.143 C 94.003 209.979,94.094 217.431,94.436 217.843 C 95.048 218.581,104.792 218.648,105.520 217.920 C 105.870 217.570,106.000 214.436,106.000 206.320 C 106.000 192.342,105.198 193.600,114.111 193.600 C 121.079 193.600,121.191 193.627,123.442 195.879 C 125.075 197.511,125.200 198.384,125.200 208.146 C 125.200 219.315,124.662 218.400,131.231 218.400 C 137.846 218.400,137.285 219.550,137.129 206.324 L 137.000 195.400 135.400 192.800 C 133.964 190.467,133.800 189.933,133.800 187.600 C 133.800 185.267,133.964 184.733,135.400 182.400 L 137.000 179.800 136.990 175.200 L 136.980 170.600 135.093 167.110 C 133.426 164.027,130.234 160.000,129.457 160.000 C 129.304 160.000,127.878 159.326,126.289 158.501 L 123.400 157.003 110.968 156.881 L 98.537 156.759 96.916 158.079 M152.434 158.730 L 150.400 160.660 150.400 187.600 L 150.400 214.540 152.434 216.470 L 154.469 218.400 170.354 218.400 C 182.177 218.400,186.363 218.277,186.720 217.920 C 187.040 217.600,187.200 215.831,187.200 212.600 C 187.200 206.250,188.345 206.800,175.120 206.800 C 161.321 206.800,162.400 207.372,162.400 200.062 C 162.400 193.146,161.735 193.600,171.870 193.600 C 181.797 193.600,181.200 193.988,181.200 187.530 C 181.200 181.231,181.789 181.600,171.730 181.600 C 161.741 181.600,162.400 182.061,162.400 175.069 C 162.400 167.840,161.331 168.400,175.120 168.400 C 188.345 168.400,187.200 168.950,187.200 162.600 C 187.200 159.369,187.040 157.600,186.720 157.280 C 186.363 156.923,182.177 156.800,170.354 156.800 L 154.469 156.800 152.434 158.730 M202.434 158.730 L 200.400 160.660 200.400 187.600 L 200.400 214.540 202.434 216.470 L 204.469 218.400 220.354 218.400 C 232.177 218.400,236.363 218.277,236.720 217.920 C 237.040 217.600,237.200 215.831,237.200 212.600 C 237.200 206.250,238.345 206.800,225.120 206.800 C 211.321 206.800,212.400 207.372,212.400 200.062 C 212.400 193.146,211.735 193.600,221.870 193.600 C 231.797 193.600,231.200 193.988,231.200 187.530 C 231.200 181.231,231.789 181.600,221.730 181.600 C 211.741 181.600,212.400 182.061,212.400 175.069 C 212.400 167.840,211.331 168.400,225.120 168.400 C 238.345 168.400,237.200 168.950,237.200 162.600 C 237.200 159.369,237.040 157.600,236.720 157.280 C 236.363 156.923,232.177 156.800,220.354 156.800 L 204.469 156.800 202.434 158.730 M80.200 162.600 L 80.200 167.800 68.625 167.906 C 58.557 167.999,56.955 168.098,56.325 168.668 C 55.310 169.587,55.228 180.371,56.229 181.371 C 56.574 181.717,56.889 182.036,56.929 182.080 C 56.968 182.124,60.870 182.259,65.600 182.380 L 74.200 182.600 74.200 187.600 L 74.200 192.600 65.600 192.820 C 60.870 192.941,56.968 193.076,56.929 193.120 C 56.889 193.164,56.574 193.483,56.229 193.829 C 55.687 194.370,55.600 196.020,55.600 205.780 C 55.600 219.238,56.166 218.066,49.743 217.913 L 45.000 217.800 44.897 189.518 C 44.804 163.730,44.852 161.191,45.449 160.718 C 45.809 160.433,46.666 159.631,47.352 158.935 C 48.983 157.281,48.666 157.308,65.600 157.358 L 80.200 157.400 80.200 162.600 M120.911 157.583 C 122.183 157.791,123.713 158.309,124.311 158.732 C 124.910 159.156,126.401 159.817,127.624 160.201 C 129.340 160.739,129.962 161.156,130.347 162.026 C 130.622 162.646,131.376 163.388,132.023 163.674 C 132.670 163.961,133.200 164.460,133.200 164.784 C 133.200 165.852,134.518 168.983,135.367 169.931 C 136.469 171.164,136.786 177.606,135.823 179.200 C 132.438 184.801,132.255 192.635,135.453 195.070 C 136.785 196.084,137.503 216.519,136.243 217.564 C 135.873 217.871,134.098 217.988,130.943 217.913 L 126.200 217.800 126.000 207.600 C 125.789 196.836,125.754 196.639,123.734 194.725 C 121.953 193.038,120.767 192.800,114.148 192.800 C 104.898 192.800,105.614 191.706,105.606 205.851 C 105.599 219.227,106.163 218.066,99.743 217.913 L 95.000 217.800 94.897 189.518 C 94.804 163.730,94.852 161.191,95.449 160.718 C 95.809 160.433,96.666 159.631,97.352 158.935 C 98.038 158.239,99.140 157.591,99.800 157.495 C 102.199 157.145,118.661 157.215,120.911 157.583 M186.320 157.680 C 186.980 158.340,186.980 166.860,186.320 167.520 C 185.970 167.870,182.806 168.002,174.620 168.006 C 160.678 168.014,161.600 167.495,161.600 175.329 C 161.600 182.584,160.982 182.150,171.664 182.400 L 180.200 182.600 180.200 187.600 L 180.200 192.600 171.664 192.800 C 160.982 193.050,161.600 192.616,161.600 199.871 C 161.600 207.705,160.678 207.186,174.620 207.194 C 187.904 207.201,186.800 206.708,186.800 212.631 C 186.800 218.620,188.471 218.083,170.323 217.930 L 155.000 217.800 153.000 215.800 L 151.000 213.800 151.000 187.600 L 151.000 161.400 152.884 159.527 C 154.178 158.240,155.180 157.602,156.084 157.491 C 159.609 157.055,185.860 157.220,186.320 157.680 M236.320 157.680 C 236.636 157.996,236.800 159.680,236.800 162.600 C 236.800 168.487,237.899 167.999,224.620 168.006 C 210.678 168.014,211.600 167.495,211.600 175.329 C 211.600 182.584,210.982 182.150,221.664 182.400 L 230.200 182.600 230.200 187.600 L 230.200 192.600 221.664 192.800 C 210.982 193.050,211.600 192.616,211.600 199.871 C 211.600 207.705,210.678 207.186,224.620 207.194 C 237.904 207.201,236.800 206.708,236.800 212.631 C 236.800 218.620,238.471 218.083,220.323 217.930 L 205.000 217.800 203.000 215.800 L 201.000 213.800 201.000 187.600 L 201.000 161.400 202.884 159.527 C 204.178 158.240,205.180 157.602,206.084 157.491 C 209.609 157.055,235.860 157.220,236.320 157.680 M106.283 168.709 C 105.309 169.784,105.263 180.406,106.228 181.371 C 107.620 182.763,120.850 182.848,122.938 181.478 C 126.479 179.155,127.023 173.096,123.983 169.835 L 122.459 168.200 114.712 168.077 C 107.541 167.963,106.915 168.010,106.283 168.709 M275.382 168.982 L 274.400 169.964 274.400 237.600 L 274.400 305.236 275.382 306.218 L 276.364 307.200 287.682 307.199 C 301.718 307.197,302.244 306.988,303.576 300.898 C 303.897 299.433,304.484 298.165,305.195 297.400 C 305.808 296.740,306.613 295.600,306.983 294.866 C 307.784 293.278,312.102 289.013,313.800 288.133 C 314.460 287.790,315.540 287.015,316.200 286.409 C 316.860 285.803,318.284 285.093,319.364 284.832 C 320.444 284.570,322.334 283.937,323.564 283.426 C 327.693 281.707,335.974 281.764,339.496 283.536 C 340.323 283.952,341.990 284.533,343.200 284.826 C 344.584 285.162,345.957 285.850,346.901 286.680 C 347.727 287.406,348.601 288.000,348.844 288.000 C 349.570 288.000,355.222 293.689,355.997 295.200 C 356.392 295.970,357.094 296.943,357.557 297.362 C 358.021 297.781,358.400 298.302,358.400 298.519 C 358.400 299.726,360.126 304.421,360.898 305.311 C 362.265 306.889,363.601 307.200,369.010 307.200 C 375.985 307.200,375.600 307.796,375.600 297.000 C 375.600 285.757,376.742 286.800,364.433 286.800 L 354.897 286.800 352.848 284.846 L 350.800 282.892 350.800 268.883 L 350.800 254.873 352.681 252.937 L 354.562 251.000 364.514 250.800 C 375.248 250.584,375.600 250.505,375.600 248.305 C 375.600 247.036,372.048 244.025,369.387 243.039 C 368.294 242.634,367.205 242.061,366.966 241.765 C 366.728 241.470,365.711 240.876,364.706 240.445 C 363.701 240.015,362.127 239.118,361.208 238.452 C 360.289 237.786,358.921 237.038,358.168 236.790 C 357.416 236.541,356.800 236.169,356.800 235.963 C 356.800 235.418,354.447 234.058,352.658 233.568 C 351.810 233.336,350.700 232.663,350.193 232.073 L 349.270 231.000 330.135 230.775 C 319.611 230.652,310.971 230.517,310.935 230.475 C 310.899 230.434,310.046 229.545,309.039 228.500 L 307.209 226.600 307.205 198.282 L 307.200 169.964 306.218 168.982 L 305.236 168.000 290.800 168.000 L 276.364 168.000 275.382 168.982 M318.662 168.731 C 317.588 169.918,317.655 217.964,318.731 218.938 C 320.048 220.129,343.330 219.921,344.177 218.711 C 344.930 217.637,345.125 174.987,344.390 172.339 C 344.153 171.487,343.321 170.280,342.391 169.439 L 340.798 168.000 330.061 168.000 C 320.167 168.000,319.272 168.057,318.662 168.731 M119.949 168.773 C 125.986 169.939,127.038 178.153,121.520 181.036 C 119.634 182.021,107.832 181.832,106.800 180.800 C 105.466 179.466,105.604 170.759,106.982 169.382 C 108.046 168.318,115.726 167.957,119.949 168.773 M340.140 169.022 C 340.833 169.365,341.985 170.374,342.700 171.266 L 344.000 172.887 344.000 195.312 C 344.000 215.617,343.937 217.806,343.338 218.469 C 342.271 219.648,320.386 219.586,319.200 218.400 C 318.418 217.618,318.400 217.067,318.400 193.800 C 318.400 170.533,318.418 169.982,319.200 169.200 C 320.288 168.112,337.992 167.962,340.140 169.022 M305.543 169.732 C 305.853 170.105,306.016 178.746,306.092 198.836 L 306.200 227.409 307.772 229.289 C 309.962 231.908,308.680 231.748,329.272 231.985 C 347.901 232.200,347.946 232.202,349.072 233.103 C 349.692 233.600,351.160 234.452,352.334 234.996 C 353.508 235.541,355.006 236.439,355.665 236.993 C 356.323 237.547,357.101 238.000,357.393 238.000 C 357.685 238.000,358.674 238.627,359.591 239.393 C 360.508 240.159,362.010 240.999,362.929 241.260 C 363.848 241.521,365.050 242.140,365.600 242.636 C 366.150 243.132,367.410 243.853,368.400 244.238 C 369.390 244.623,370.770 245.402,371.467 245.969 C 372.164 246.536,373.208 247.330,373.788 247.734 C 375.980 249.262,374.738 249.501,363.791 249.658 L 353.607 249.805 351.945 251.466 C 349.761 253.651,349.653 254.418,349.624 268.040 C 349.592 282.576,349.806 285.146,351.086 285.633 C 351.615 285.834,351.948 286.160,351.826 286.358 C 351.487 286.906,349.173 286.240,347.535 285.123 C 346.730 284.573,345.200 283.889,344.135 283.601 C 343.071 283.314,341.930 282.852,341.600 282.576 C 339.213 280.580,324.684 280.410,321.412 282.340 C 320.715 282.751,319.207 283.399,318.060 283.780 C 316.913 284.161,315.486 284.873,314.888 285.362 C 314.289 285.852,313.170 286.635,312.400 287.103 C 309.407 288.922,304.922 294.225,303.185 298.000 C 300.785 303.213,299.512 305.548,298.954 305.762 C 297.688 306.248,276.585 306.025,276.080 305.520 C 275.382 304.822,275.382 170.378,276.080 169.680 C 276.813 168.947,304.933 168.996,305.543 169.732 M312.982 244.182 C 311.588 245.576,311.476 254.026,312.829 255.746 L 313.658 256.800 325.029 256.800 C 339.124 256.800,338.000 257.387,338.000 250.029 C 338.000 242.711,338.936 243.200,324.928 243.200 L 313.964 243.200 312.982 244.182 M336.364 244.956 C 336.672 245.328,336.788 247.153,336.713 250.456 L 336.600 255.400 325.449 255.506 C 317.556 255.582,314.137 255.480,313.749 255.157 C 313.021 254.554,312.961 245.599,313.680 244.880 C 314.430 244.130,335.738 244.202,336.364 244.956 M363.294 262.015 C 361.423 262.767,360.696 272.794,362.364 274.856 C 363.625 276.416,373.494 276.542,375.018 275.018 C 376.542 273.494,376.416 263.625,374.856 262.364 C 373.814 261.521,365.172 261.260,363.294 262.015 M374.363 263.355 C 374.673 263.729,374.787 265.656,374.712 269.255 L 374.600 274.600 369.255 274.712 C 365.656 274.787,363.729 274.673,363.355 274.363 C 362.619 273.752,362.553 264.007,363.280 263.280 C 364.007 262.553,373.752 262.619,374.363 263.355 M25.382 268.982 L 24.400 269.964 24.400 287.600 L 24.400 305.236 25.382 306.218 C 26.318 307.154,26.593 307.200,31.282 307.199 C 38.407 307.198,40.100 306.094,41.194 300.732 C 41.530 299.083,42.040 297.880,42.655 297.284 C 43.175 296.780,43.947 295.700,44.369 294.884 C 45.155 293.369,50.195 288.560,52.000 287.603 C 52.550 287.312,53.232 286.747,53.515 286.348 C 53.798 285.949,54.788 285.432,55.715 285.198 C 56.642 284.964,58.750 284.260,60.400 283.633 C 65.613 281.653,72.688 281.635,76.981 283.591 C 78.031 284.070,79.884 284.670,81.097 284.924 C 82.640 285.248,83.487 285.667,83.913 286.317 C 84.248 286.828,85.170 287.583,85.961 287.994 C 87.914 289.009,92.616 293.672,93.568 295.537 C 95.291 298.915,98.589 298.903,100.327 295.514 C 101.216 293.780,102.644 292.389,109.338 286.737 C 110.354 285.879,111.805 285.203,113.616 284.743 C 115.123 284.360,116.779 283.770,117.297 283.431 C 119.732 281.835,129.791 281.807,132.846 283.388 C 133.591 283.773,135.453 284.420,136.985 284.826 C 138.535 285.237,140.042 285.904,140.385 286.332 C 140.723 286.754,141.540 287.433,142.200 287.841 C 144.617 289.332,148.835 293.419,149.610 295.021 C 150.048 295.926,150.833 297.067,151.354 297.557 C 151.958 298.125,152.485 299.316,152.812 300.855 C 153.436 303.798,154.569 305.575,156.408 306.499 C 158.784 307.693,260.622 307.570,262.146 306.371 L 263.200 305.542 263.200 287.600 L 263.200 269.658 262.146 268.829 L 261.092 268.000 143.728 268.000 L 26.364 268.000 25.382 268.982 M261.520 269.680 C 262.210 270.370,262.210 304.830,261.520 305.520 C 260.953 306.087,158.167 306.220,157.276 305.655 C 156.654 305.261,154.337 300.835,153.629 298.690 C 153.355 297.859,152.720 296.689,152.218 296.090 C 151.715 295.490,150.964 294.365,150.550 293.588 C 149.804 292.193,144.269 286.800,143.582 286.800 C 143.387 286.800,142.637 286.286,141.914 285.658 C 141.191 285.030,139.610 284.192,138.400 283.796 C 137.190 283.400,135.502 282.713,134.649 282.271 C 131.362 280.565,118.413 280.579,115.483 282.291 C 114.777 282.703,113.131 283.373,111.824 283.781 C 110.518 284.189,109.078 284.903,108.624 285.370 C 108.171 285.836,107.080 286.688,106.200 287.264 C 103.805 288.831,100.537 292.164,99.607 293.987 C 98.439 296.275,95.642 296.412,94.510 294.236 C 93.562 292.414,89.907 288.604,87.854 287.298 C 86.944 286.719,85.750 285.860,85.200 285.389 C 84.650 284.917,83.300 284.218,82.200 283.836 C 81.100 283.453,79.546 282.794,78.746 282.370 C 75.285 280.538,62.084 280.528,58.987 282.354 C 58.216 282.810,56.627 283.460,55.458 283.800 C 54.288 284.141,52.986 284.734,52.565 285.120 C 52.144 285.506,51.170 286.253,50.400 286.781 C 46.304 289.588,42.691 293.800,40.776 298.000 C 38.485 303.027,37.114 305.547,36.554 305.762 C 35.350 306.224,26.581 306.021,26.080 305.520 C 25.390 304.830,25.390 270.370,26.080 269.680 C 26.779 268.981,260.821 268.981,261.520 269.680 M374.320 288.480 C 374.998 289.158,374.998 304.842,374.320 305.520 C 373.723 306.117,364.692 306.184,363.599 305.600 C 362.844 305.195,360.729 301.403,359.797 298.779 C 358.957 296.419,356.425 292.700,354.466 290.950 C 352.852 289.509,352.687 289.218,353.158 288.650 C 353.854 287.812,373.494 287.654,374.320 288.480 M64.220 294.397 C 59.104 296.031,54.769 299.700,52.168 304.600 L 50.256 308.200 50.235 312.400 C 50.195 320.046,54.016 325.771,61.689 329.564 L 65.178 331.289 69.489 331.106 C 76.792 330.795,81.884 327.425,85.526 320.495 L 87.362 317.000 87.341 312.600 L 87.321 308.200 85.505 304.713 C 81.320 296.674,71.695 292.010,64.220 294.397 M120.351 294.365 C 109.599 297.835,103.523 310.096,107.945 319.400 C 108.677 320.940,109.549 322.785,109.883 323.500 C 110.218 324.215,110.731 324.800,111.025 324.800 C 111.319 324.800,112.025 325.411,112.595 326.158 C 113.165 326.905,114.209 327.750,114.915 328.036 C 115.622 328.323,117.100 329.107,118.200 329.779 C 120.149 330.969,120.328 331.000,125.200 331.000 L 130.200 331.000 132.608 329.500 C 133.932 328.675,135.213 328.000,135.454 328.000 C 135.695 328.000,136.874 327.055,138.074 325.900 C 142.916 321.238,145.269 311.766,142.773 306.985 C 142.318 306.113,141.585 304.500,141.145 303.400 C 138.677 297.237,127.075 292.195,120.351 294.365 M326.493 294.425 C 325.774 294.646,324.344 295.361,323.315 296.013 C 322.285 296.666,321.254 297.207,321.022 297.216 C 319.789 297.262,316.662 300.986,314.763 304.670 L 312.736 308.600 312.868 312.800 C 313.108 320.442,316.653 325.764,323.950 329.439 L 327.621 331.288 331.910 331.125 C 336.745 330.941,341.140 329.125,343.880 326.177 C 344.583 325.420,345.333 324.800,345.545 324.800 C 345.758 324.800,346.848 322.955,347.967 320.700 L 350.003 316.600 349.999 312.600 C 349.987 300.914,337.301 291.105,326.493 294.425 M70.680 296.542 C 71.202 297.425,72.572 297.966,75.011 298.253 C 76.734 298.455,77.353 298.701,77.493 299.235 C 77.596 299.626,78.274 300.229,79.001 300.573 C 79.806 300.956,80.483 301.663,80.735 302.386 C 80.992 303.121,81.518 303.665,82.122 303.816 C 82.997 304.036,83.116 304.320,83.302 306.630 C 83.415 308.043,83.771 309.605,84.094 310.100 C 85.226 311.840,85.352 313.986,84.383 315.018 C 83.739 315.704,83.458 316.621,83.304 318.539 C 83.137 320.620,82.950 321.172,82.358 321.327 C 81.952 321.433,81.248 322.150,80.794 322.921 C 80.335 323.698,79.523 324.433,78.970 324.572 C 78.421 324.710,77.818 325.227,77.629 325.722 C 77.350 326.458,76.791 326.708,74.580 327.086 C 72.932 327.369,71.569 327.853,71.098 328.324 C 70.276 329.146,67.347 328.885,66.762 327.938 C 66.620 327.708,65.131 327.322,63.453 327.081 C 61.100 326.742,60.351 326.476,60.173 325.916 C 60.047 325.517,59.419 324.920,58.778 324.589 C 58.138 324.258,57.336 323.450,56.996 322.793 C 56.657 322.137,56.217 321.600,56.018 321.600 C 55.171 321.600,54.400 320.246,54.400 318.759 C 54.400 316.941,53.459 314.400,52.785 314.400 C 52.207 314.400,52.674 311.364,53.430 310.209 C 53.721 309.764,54.070 308.590,54.205 307.600 C 54.641 304.403,54.768 304.095,55.757 303.847 C 56.355 303.697,56.879 303.148,57.140 302.400 C 57.382 301.705,57.994 301.030,58.585 300.806 C 59.149 300.591,59.799 300.000,60.031 299.493 C 60.377 298.732,60.944 298.491,63.245 298.129 C 64.781 297.887,66.345 297.416,66.719 297.081 C 67.319 296.546,68.268 296.237,69.880 296.054 C 70.144 296.025,70.504 296.244,70.680 296.542 M127.326 296.962 C 128.062 297.698,128.913 297.991,130.944 298.209 C 132.835 298.411,133.600 298.656,133.600 299.060 C 133.600 299.372,134.228 299.998,134.996 300.451 C 135.764 300.904,136.619 301.736,136.896 302.300 C 137.173 302.865,137.760 303.523,138.200 303.763 C 138.640 304.003,139.075 304.245,139.166 304.299 C 139.258 304.354,139.485 305.514,139.671 306.877 C 139.858 308.241,140.255 309.730,140.555 310.187 C 141.595 311.775,141.737 314.152,140.839 314.965 C 140.358 315.400,139.939 316.436,139.796 317.546 C 139.390 320.684,139.226 321.138,138.395 321.402 C 137.953 321.542,137.330 322.162,137.010 322.780 C 136.691 323.398,135.793 324.279,135.015 324.738 C 134.237 325.197,133.600 325.809,133.600 326.098 C 133.600 326.441,132.598 326.781,130.711 327.078 C 128.665 327.400,127.629 327.771,127.162 328.348 C 126.445 329.234,124.956 329.056,122.528 327.796 C 121.915 327.479,120.396 327.103,119.150 326.963 C 117.292 326.752,116.809 326.537,116.456 325.764 C 116.220 325.246,115.578 324.709,115.030 324.572 C 114.477 324.433,113.665 323.698,113.206 322.921 C 112.752 322.150,112.024 321.427,111.590 321.313 C 111.018 321.164,110.797 320.760,110.790 319.853 C 110.774 317.719,110.077 315.430,109.234 314.747 C 108.366 314.044,108.503 312.880,109.769 310.206 C 110.083 309.543,110.466 307.885,110.619 306.521 C 110.858 304.405,111.023 304.025,111.749 303.921 C 112.254 303.849,112.926 303.190,113.400 302.301 C 113.868 301.424,114.498 300.802,114.919 300.801 C 115.314 300.800,115.932 300.287,116.292 299.660 C 116.861 298.668,117.305 298.464,119.705 298.092 C 121.223 297.857,122.765 297.397,123.132 297.069 C 123.500 296.741,124.250 296.391,124.800 296.291 C 125.350 296.191,125.927 296.084,126.082 296.054 C 126.237 296.025,126.797 296.433,127.326 296.962 M333.200 296.536 C 333.200 297.309,334.932 297.984,337.642 298.267 C 339.271 298.438,340.000 298.686,340.000 299.070 C 340.000 299.377,340.616 299.990,341.368 300.434 C 342.121 300.878,342.919 301.766,343.142 302.407 C 343.392 303.122,343.924 303.666,344.520 303.816 C 345.375 304.030,345.523 304.349,345.744 306.464 C 345.882 307.786,346.266 309.441,346.598 310.140 C 347.904 312.890,348.041 314.038,347.152 314.758 C 346.572 315.228,346.201 316.257,345.882 318.286 C 345.544 320.429,345.255 321.197,344.735 321.333 C 344.353 321.433,343.689 322.092,343.260 322.797 C 342.831 323.503,341.922 324.419,341.240 324.834 C 340.558 325.249,340.000 325.821,340.000 326.106 C 340.000 326.439,338.973 326.785,337.111 327.078 C 335.059 327.401,334.029 327.770,333.558 328.352 C 332.843 329.235,331.694 329.103,329.006 327.831 C 328.343 327.517,326.689 327.135,325.331 326.982 C 323.210 326.743,322.830 326.576,322.634 325.792 C 322.499 325.253,321.923 324.712,321.228 324.470 C 320.572 324.241,319.770 323.515,319.415 322.830 C 319.066 322.153,318.617 321.600,318.418 321.600 C 317.438 321.600,316.800 320.240,316.800 318.153 C 316.800 316.369,316.620 315.784,315.829 314.993 C 314.780 313.943,314.879 312.673,316.211 310.120 C 316.532 309.504,316.799 308.100,316.804 307.000 C 316.813 304.722,317.047 304.218,318.267 303.838 C 318.743 303.689,319.316 303.042,319.540 302.400 C 319.808 301.631,320.433 301.030,321.373 300.637 C 322.272 300.261,322.800 299.770,322.800 299.309 C 322.800 298.711,323.316 298.496,325.619 298.133 C 327.170 297.889,328.745 297.414,329.119 297.078 C 329.710 296.548,330.496 296.324,332.700 296.060 C 332.975 296.027,333.200 296.241,333.200 296.536 M62.600 305.075 C 61.300 305.428,61.212 305.902,61.212 312.600 C 61.212 320.874,60.539 320.200,68.800 320.200 C 74.435 320.200,75.695 320.095,76.008 319.600 C 76.503 318.818,76.503 306.383,76.009 305.600 C 75.622 304.988,64.523 304.553,62.600 305.075 M118.822 305.135 C 117.419 305.552,117.105 307.274,117.264 313.676 C 117.358 317.487,117.559 319.320,117.920 319.681 C 118.733 320.493,131.890 320.420,132.408 319.600 C 132.903 318.818,132.903 306.383,132.409 305.600 C 131.993 304.941,120.770 304.557,118.822 305.135 M324.928 305.184 C 323.465 305.804,322.941 318.303,324.321 319.680 C 325.065 320.423,337.738 320.423,338.480 319.680 C 339.223 318.937,339.223 306.263,338.481 305.520 C 337.853 304.891,326.295 304.605,324.928 305.184 M74.577 307.289 C 75.050 307.963,75.200 309.245,75.200 312.600 C 75.200 318.887,75.287 318.800,68.977 318.800 C 62.343 318.800,62.400 318.854,62.400 312.600 C 62.400 306.346,62.343 306.400,68.977 306.400 C 73.667 306.400,73.991 306.451,74.577 307.289 M130.800 307.200 C 131.507 307.907,131.600 308.533,131.600 312.600 C 131.600 318.839,131.641 318.800,125.131 318.800 C 118.643 318.800,118.800 318.952,118.800 312.670 C 118.800 306.235,118.635 306.400,125.062 306.400 C 129.467 306.400,130.086 306.486,130.800 307.200 M336.869 307.062 C 337.500 307.633,337.600 308.382,337.600 312.530 C 337.600 318.965,337.765 318.800,331.338 318.800 C 324.749 318.800,324.800 318.849,324.800 312.600 C 324.800 306.361,324.759 306.400,331.269 306.400 C 335.237 306.400,336.272 306.522,336.869 307.062 " stroke="none" fill="#545454" fill-rule="evenodd"></path><path id="path5" d="M25.900 106.832 C 24.747 107.504,24.820 255.369,25.974 255.986 C 26.502 256.269,63.878 256.400,143.800 256.400 C 223.722 256.400,261.098 256.269,261.626 255.986 C 262.844 255.334,262.844 107.466,261.626 106.814 C 260.555 106.241,26.885 106.258,25.900 106.832 M261.400 181.400 L 261.400 255.400 143.800 255.400 L 26.200 255.400 26.097 181.800 C 26.041 141.320,26.080 107.975,26.185 107.699 C 26.337 107.300,50.088 107.219,143.888 107.299 L 261.400 107.400 261.400 181.400 M46.644 156.063 C 42.598 158.413,42.800 156.665,42.800 189.387 C 42.800 223.571,41.835 219.600,50.138 219.600 C 57.869 219.600,57.162 220.887,57.294 206.575 L 57.400 195.000 65.877 194.892 L 74.354 194.784 75.177 193.738 C 76.415 192.165,76.415 183.035,75.177 181.462 L 74.354 180.416 65.877 180.308 L 57.400 180.200 57.287 175.457 C 57.134 169.034,55.958 169.600,69.449 169.600 C 83.555 169.600,82.400 170.224,82.400 162.600 C 82.400 154.832,84.404 155.597,64.100 155.612 C 52.728 155.620,47.159 155.764,46.644 156.063 M96.644 156.063 C 92.598 158.413,92.800 156.665,92.800 189.387 C 92.800 223.571,91.835 219.600,100.138 219.600 C 107.869 219.600,107.162 220.887,107.294 206.575 L 107.400 195.000 113.957 195.000 C 119.993 195.000,120.549 195.061,120.957 195.765 C 121.520 196.738,122.460 197.678,123.430 198.240 C 124.136 198.649,124.204 199.400,124.395 208.756 C 124.638 220.699,123.915 219.586,131.438 219.594 C 139.081 219.602,138.401 220.877,138.398 206.569 C 138.395 194.041,138.222 192.683,136.386 190.847 C 134.663 189.125,134.679 186.221,136.421 184.237 C 139.206 181.066,139.336 168.571,136.612 166.011 C 136.068 165.500,135.423 164.476,135.178 163.734 C 134.909 162.919,134.272 162.148,133.567 161.783 C 132.925 161.451,132.400 160.942,132.400 160.652 C 132.400 159.953,131.244 158.966,130.000 158.602 C 129.450 158.442,128.536 157.877,127.970 157.347 C 127.403 156.818,126.325 156.208,125.573 155.992 C 123.626 155.434,97.618 155.498,96.644 156.063 M153.000 155.984 C 151.878 156.451,150.131 158.389,149.625 159.726 C 149.340 160.481,149.200 169.685,149.200 187.639 C 149.200 216.934,149.119 215.887,151.577 218.200 L 152.852 219.400 169.881 219.513 C 190.529 219.649,188.400 220.444,188.400 212.600 C 188.400 204.941,189.679 205.638,175.375 205.506 L 163.800 205.400 163.800 200.200 L 163.800 195.000 172.336 194.800 C 183.037 194.549,182.400 195.005,182.400 187.600 C 182.400 180.195,183.037 180.651,172.336 180.400 L 163.800 180.200 163.800 175.000 L 163.800 169.800 175.375 169.694 C 185.443 169.601,187.045 169.502,187.675 168.932 C 188.771 167.940,188.766 157.255,187.669 156.262 C 186.861 155.532,154.706 155.274,153.000 155.984 M203.000 155.984 C 201.878 156.451,200.131 158.389,199.625 159.726 C 199.340 160.481,199.200 169.685,199.200 187.639 C 199.200 216.934,199.119 215.887,201.577 218.200 L 202.852 219.400 219.881 219.513 C 240.529 219.649,238.400 220.444,238.400 212.600 C 238.400 204.941,239.679 205.638,225.375 205.506 L 213.800 205.400 213.800 200.200 L 213.800 195.000 222.336 194.800 C 233.037 194.549,232.400 195.005,232.400 187.600 C 232.400 180.195,233.037 180.651,222.336 180.400 L 213.800 180.200 213.800 175.000 L 213.800 169.800 225.375 169.694 C 235.443 169.601,237.045 169.502,237.675 168.932 C 238.771 167.940,238.766 157.255,237.669 156.262 C 236.861 155.532,204.706 155.274,203.000 155.984 M80.800 157.200 C 81.507 157.907,81.600 158.533,81.600 162.600 C 81.600 169.280,82.581 168.800,68.931 168.800 C 55.330 168.800,56.400 168.280,56.400 174.888 C 56.400 181.718,55.661 181.200,65.414 181.200 C 75.771 181.200,75.200 180.826,75.200 187.600 C 75.200 194.374,75.771 194.000,65.414 194.000 C 55.350 194.000,56.400 192.551,56.400 206.442 C 56.400 219.872,56.943 218.800,50.138 218.800 C 42.723 218.800,43.531 222.522,43.684 189.078 C 43.824 158.369,43.653 160.263,46.495 158.000 L 48.505 156.400 64.252 156.400 C 79.467 156.400,80.027 156.427,80.800 157.200 M126.752 158.297 C 130.642 160.243,133.244 162.675,134.937 165.946 C 135.578 167.186,136.394 168.740,136.750 169.400 C 137.242 170.311,137.396 171.716,137.391 175.242 L 137.385 179.884 135.793 182.442 C 133.493 186.136,133.495 189.067,135.800 192.769 L 137.400 195.339 137.538 206.296 C 137.709 219.864,138.237 218.800,131.338 218.800 C 124.320 218.800,124.800 219.634,124.800 207.455 L 124.800 197.709 122.817 195.855 L 120.834 194.000 114.031 194.000 C 105.583 194.000,106.400 192.667,106.400 206.442 C 106.400 219.872,106.943 218.800,100.138 218.800 C 92.723 218.800,93.531 222.522,93.684 189.078 C 93.824 158.328,93.647 160.268,96.532 157.970 L 98.578 156.341 110.989 156.481 L 123.400 156.621 126.752 158.297 M186.869 157.062 C 187.500 157.633,187.600 158.382,187.600 162.530 C 187.600 169.349,188.676 168.800,175.312 168.800 C 161.641 168.800,162.800 168.232,162.800 174.934 C 162.800 181.728,162.046 181.200,171.754 181.200 C 182.015 181.200,181.600 180.932,181.600 187.544 C 181.600 194.285,182.032 194.000,171.810 194.000 C 162.038 194.000,162.800 193.470,162.800 200.266 C 162.800 206.967,161.651 206.400,175.242 206.400 C 188.651 206.400,187.600 205.879,187.600 212.530 C 187.600 219.462,189.383 218.800,170.718 218.800 C 153.416 218.800,154.061 218.893,151.470 216.025 L 150.000 214.398 150.000 187.613 L 150.000 160.828 151.300 159.347 C 153.996 156.276,153.166 156.403,170.569 156.401 C 184.495 156.400,186.214 156.470,186.869 157.062 M236.869 157.062 C 237.500 157.633,237.600 158.382,237.600 162.530 C 237.600 169.349,238.676 168.800,225.312 168.800 C 211.641 168.800,212.800 168.232,212.800 174.934 C 212.800 181.728,212.046 181.200,221.754 181.200 C 232.015 181.200,231.600 180.932,231.600 187.544 C 231.600 194.285,232.032 194.000,221.810 194.000 C 212.038 194.000,212.800 193.470,212.800 200.266 C 212.800 206.967,211.651 206.400,225.242 206.400 C 238.651 206.400,237.600 205.879,237.600 212.530 C 237.600 219.462,239.383 218.800,220.718 218.800 C 203.416 218.800,204.061 218.893,201.470 216.025 L 200.000 214.398 200.000 187.613 L 200.000 160.828 201.300 159.347 C 203.996 156.276,203.166 156.403,220.569 156.401 C 234.495 156.400,236.214 156.470,236.869 157.062 M107.062 169.531 C 106.286 170.389,106.089 179.071,106.814 180.426 C 107.199 181.145,107.715 181.200,114.031 181.200 L 120.834 181.200 122.817 179.345 C 126.169 176.210,125.398 171.571,121.160 169.380 C 119.325 168.430,107.948 168.553,107.062 169.531 M319.280 169.280 C 318.587 169.973,318.587 217.627,319.280 218.320 C 320.175 219.215,342.512 218.982,343.338 218.069 C 344.125 217.199,344.358 176.304,343.591 173.545 C 343.348 172.667,342.479 171.437,341.403 170.445 L 339.618 168.800 329.689 168.800 C 322.500 168.800,319.628 168.932,319.280 169.280 M118.916 169.935 C 120.417 170.143,120.938 170.416,121.327 171.200 C 121.600 171.750,122.313 172.435,122.912 172.722 C 124.860 173.656,124.473 175.940,121.949 178.412 L 119.899 180.420 113.649 180.310 L 107.400 180.200 107.287 175.457 C 107.212 172.302,107.329 170.527,107.636 170.157 C 108.135 169.555,115.169 169.417,118.916 169.935 M339.684 170.252 C 339.968 170.611,340.830 171.520,341.600 172.272 L 343.000 173.639 343.119 195.355 C 343.220 213.725,343.151 217.143,342.670 217.542 C 342.258 217.884,339.058 217.984,330.951 217.906 L 319.800 217.800 319.696 194.200 C 319.639 181.220,319.678 170.375,319.784 170.100 C 320.109 169.249,339.005 169.394,339.684 170.252 M363.280 263.280 C 362.553 264.007,362.619 273.752,363.355 274.363 C 363.729 274.673,365.656 274.787,369.255 274.712 L 374.600 274.600 374.712 269.255 C 374.787 265.656,374.673 263.729,374.363 263.355 C 373.752 262.619,364.007 262.553,363.280 263.280 M374.312 268.641 C 374.452 274.706,374.702 274.460,368.543 274.313 L 363.800 274.200 363.687 269.423 C 363.535 263.049,363.058 263.556,369.092 263.688 L 374.200 263.800 374.312 268.641 " stroke="none" fill="#7c7c7c" fill-rule="evenodd"></path></g></svg>