<?xml version="1.0" standalone="no"?>
<!DOCTYPE svg PUBLIC "-//W3C//DTD SVG 20010904//EN"
 "http://www.w3.org/TR/2001/REC-SVG-20010904/DTD/svg10.dtd">
<svg version="1.0" xmlns="http://www.w3.org/2000/svg"
 width="512.000000pt" height="512.000000pt" viewBox="0 0 512.000000 512.000000"
 preserveAspectRatio="xMidYMid meet">

<g transform="translate(0.000000,512.000000) scale(0.100000,-0.100000)"
fill="#000000" stroke="none">
<path d="M1450 4366 c-694 -310 -981 -443 -997 -461 l-23 -26 0 -1214 0 -1214
22 -25 c16 -17 336 -164 973 -447 523 -232 969 -429 993 -437 42 -14 43 -14
127 26 99 48 129 84 120 142 -13 79 -94 111 -175 70 l-38 -20 -906 403 -906
402 0 1053 c0 578 2 1052 4 1052 2 0 403 -178 892 -395 543 -241 901 -395 919
-395 17 0 399 165 915 394 l885 394 5 -462 c4 -344 8 -467 18 -483 19 -34 53
-53 95 -53 31 0 46 7 73 34 l34 34 0 564 c0 534 -1 565 -19 594 -17 27 -126
78 -992 464 -536 238 -990 434 -1009 436 -29 3 -204 -71 -1010 -430z m1323 67
c169 -75 304 -140 300 -144 -5 -4 -374 -171 -822 -370 -663 -294 -817 -359
-835 -352 -251 109 -606 269 -606 273 0 7 1622 728 1640 729 8 1 153 -61 323
-136z m959 -425 c202 -90 367 -165 367 -168 0 -5 -1611 -723 -1637 -728 -19
-5 -753 321 -744 330 10 9 1624 727 1637 728 6 0 175 -73 377 -162z"/>
<path d="M3475 2660 c-432 -67 -773 -378 -886 -806 -21 -76 -24 -113 -24 -254
0 -141 3 -178 24 -254 70 -266 223 -483 444 -630 710 -472 1657 33 1657 884 0
505 -351 940 -845 1046 -86 19 -289 26 -370 14z m285 -221 c165 -26 324 -105
447 -223 121 -114 201 -249 244 -411 30 -112 30 -298 0 -410 -106 -398 -466
-665 -866 -642 -124 8 -206 28 -313 78 -249 115 -421 331 -477 601 -19 87 -19
253 -1 338 95 445 521 741 966 669z"/>
<path d="M3763 1678 l-243 -243 -103 102 c-106 105 -141 128 -187 118 -31 -7
-75 -49 -85 -83 -14 -47 13 -86 168 -239 154 -154 181 -172 235 -158 18 4 128
107 320 298 l292 292 0 44 c0 36 -6 49 -34 77 -28 28 -41 34 -77 34 -43 0 -44
-1 -286 -242z"/>
</g>
</svg>
