<?xml version="1.0" standalone="no"?>
<!DOCTYPE svg PUBLIC "-//W3C//DTD SVG 20010904//EN"
 "http://www.w3.org/TR/2001/REC-SVG-20010904/DTD/svg10.dtd">
<svg version="1.0" xmlns="http://www.w3.org/2000/svg"
 width="512.000000pt" height="512.000000pt" viewBox="0 0 512.000000 512.000000"
 preserveAspectRatio="xMidYMid meet">

<g transform="translate(0.000000,512.000000) scale(0.100000,-0.100000)"
fill="#000000" stroke="none">
<path d="M1452 4366 c-579 -257 -984 -443 -998 -458 l-24 -24 0 -1214 c0
-1157 1 -1216 18 -1239 24 -33 1950 -892 2002 -894 42 -1 283 102 318 137 45
44 38 128 -14 162 -41 28 -81 22 -194 -30 l-105 -47 -907 403 -908 403 0 1053
c0 578 2 1052 4 1052 2 0 403 -178 892 -395 543 -241 901 -395 919 -395 17 0
399 165 915 394 l885 394 5 -622 c4 -473 8 -626 18 -643 19 -34 53 -53 95 -53
31 0 46 7 73 34 l34 34 0 730 0 731 -22 26 c-27 31 -1942 885 -1998 891 -29 3
-205 -72 -1008 -430z m1321 67 c169 -75 304 -140 300 -144 -5 -4 -374 -171
-822 -370 -663 -294 -817 -359 -835 -352 -251 109 -606 269 -606 273 0 7 1622
728 1640 729 8 1 153 -61 323 -136z m959 -425 c202 -90 367 -165 367 -168 0
-5 -1611 -723 -1637 -728 -19 -5 -753 321 -744 330 10 9 1624 727 1637 728 6
0 175 -73 377 -162z"/>
<path d="M3155 2655 c-278 -52 -504 -228 -624 -487 -49 -106 -70 -189 -77
-308 -18 -288 119 -573 361 -746 271 -194 669 -203 947 -21 l66 44 339 -339
c186 -187 350 -346 365 -354 99 -52 196 45 144 144 -8 15 -168 180 -355 366
l-340 340 30 37 c38 48 102 186 126 269 14 50 18 100 17 220 0 142 -2 162 -28
240 -51 153 -115 258 -225 365 -197 193 -479 280 -746 230z m300 -220 c416
-106 615 -569 404 -943 -18 -32 -67 -91 -109 -133 -123 -123 -269 -182 -445
-182 -353 1 -635 282 -635 634 0 293 193 546 472 619 90 23 231 26 313 5z"/>
</g>
</svg>
