<?xml version="1.0" standalone="no"?>
<!DOCTYPE svg PUBLIC "-//W3C//DTD SVG 20010904//EN"
 "http://www.w3.org/TR/2001/REC-SVG-20010904/DTD/svg10.dtd">
<svg version="1.0" xmlns="http://www.w3.org/2000/svg"
 width="512.000000pt" height="512.000000pt" viewBox="0 0 512.000000 512.000000"
 preserveAspectRatio="xMidYMid meet">

<g transform="translate(0.000000,512.000000) scale(0.100000,-0.100000)"
fill="#000000" stroke="none">
<path d="M0 2560 l0 -2560 2560 0 2560 0 0 2560 0 2560 -2560 0 -2560 0 0
-2560z m3093 974 c254 -147 468 -272 475 -278 9 -9 -96 -74 -464 -286 -262
-151 -481 -274 -486 -272 -20 6 -948 545 -948 551 0 7 940 551 953 551 5 0
216 -120 470 -266z m-1022 -688 l474 -274 3 -556 c2 -465 0 -556 -11 -549 -8
4 -224 129 -480 278 l-467 270 0 552 c0 304 2 553 4 553 1 0 216 -123 477
-274z m1572 -837 c-10 -9 -913 -529 -930 -536 -11 -4 -13 98 -11 548 l3 554
470 271 470 272 3 -551 c1 -303 -1 -554 -5 -558z"/>
</g>
</svg>
